OpenSim_Sub01_EMGBaseline_GRF.mot
version=1
nRows=28
nColumns=19
inDegrees=no
endheader
time	lFx	lFy	lFz	lCOPx	lCOPy	lCOPz	rFx	rFy	rFz	rCOPx	rCOPy	rCOPz	lMx	lMy	lMz	rMx	rMy	rMz
19.01000000	-3.30655038	0.52740262	-11.58868991	-0.00002245	0	0.00001247	14.00587574	657.93277826	-38.56699680	0.89577185	0	-0.42019068	0	0.00011882	0	0	3.03295386	0
19.02000000	-3.12830858	0.51369552	-11.41121481	-0.00005056	0	0.00002801	15.80231572	658.01413131	-38.97809011	0.89109508	0	-0.42043992	0	0.00024765	0	0	3.13638280	-0.00000000
19.03000000	-3.02055247	0.37251042	-11.13209903	-0.00006953	0	0.00003842	17.78619138	657.58664997	-39.53858674	0.88652996	0	-0.42065494	0	0.00030696	0	0	3.20268924	0
19.04000000	-2.97934462	0.11166770	-10.79890016	-0.00002096	0	0.00001130	19.89845975	656.94474201	-40.16097360	0.88209787	0	-0.42083357	0	-0.00000010	0	0	3.26489659	0.00000000
19.05000000	-2.97961303	-0.06963185	-10.41824420	0.00019952	0	-0.00011112	21.97987304	656.09767253	-40.80726321	0.87775409	0	-0.42100347	0	-0.00116426	0	0	3.30428163	-0.00000000
19.06000000	-3.01686420	-0.09865133	-10.04176462	0.00068978	0	-0.00038276	23.97192080	654.87357476	-41.47718824	0.87323678	0	-0.42121093	0	-0.00356092	0	0	3.30125645	0
19.07000000	-3.09287363	-0.06089708	-9.71475689	0.00135340	0	-0.00074945	25.79422775	653.53725323	-42.08966346	0.86854105	0	-0.42145309	0	-0.00647763	0	0	3.29037294	-0.00000000
19.08000000	-3.21689413	-0.02543911	-9.35312714	0.00152428	0	-0.00084107	27.46580923	652.48520370	-42.39419281	0.86371003	0	-0.42175449	0	-0.00631162	0	0	3.28237854	0.00000000
19.09000000	-3.39803094	-0.17484435	-8.98786677	-0.00046935	0	0.00026908	29.23329537	652.03356706	-42.15248692	0.85875770	0	-0.42214674	0	0.00525605	0	0	3.31510020	-0.00000000
19.10000000	-3.66731073	-0.66292608	-8.68257698	-0.00721558	0	0.00401234	31.50567103	652.20986460	-41.37069271	0.85338170	0	-0.42259952	0	0.04001042	0	0	3.41636643	-0.00000000
19.11000000	-4.03655616	-1.50948787	-8.45502941	-0.02029175	0	0.01125286	34.46316322	652.77884290	-40.33656700	0.84755806	0	-0.42303499	0	0.10245608	0	0	3.54898106	-0.00000000
19.12000000	-4.32687198	-2.47294737	-8.25567642	-0.03470907	0	0.01920665	37.91369966	653.00269409	-39.31664454	0.84144100	0	-0.42341764	0	0.16168434	0	0	3.65129820	0
19.13000000	-4.00243801	-2.27294153	-7.90903323	-0.02922637	0	0.01608099	41.60953268	652.10174884	-38.63262986	0.83519736	0	-0.42374460	0	0.10606893	0	0	3.70178389	-0.00000000
19.14000000	-2.11750822	2.20379409	-7.21309709	0.04221322	0	-0.02363978	45.41866466	649.46843331	-38.45022173	0.82877843	0	-0.42407162	0	-0.28863750	0	0	3.68828780	0
19.15000000	2.18510682	15.19592503	-6.04650228	0.23994736	0	-0.13328805	49.44508227	644.83694728	-38.58522790	0.82221482	0	-0.42442725	0	-1.28510328	0	0	3.62494035	-0.00000000
19.16000000	7.89362860	38.56949558	-4.81801320	0.57390439	0	-0.31807392	53.62212201	638.04002689	-38.72022193	0.81564072	0	-0.42479452	0	-2.83648422	0	0	3.57038230	-0.00000000
19.17000000	10.71567938	69.09699464	-4.42957792	0.89332807	0	-0.49423021	57.82410831	628.67398190	-38.54584138	0.80916217	0	-0.42519455	0	-3.93353880	0	0	3.56250498	0.00000000
19.18000000	8.27359587	102.09139730	-5.47731200	1.07044854	0	-0.59035316	61.90598006	616.18069324	-37.76837121	0.80285347	0	-0.42566656	0	-3.65362478	0	0	3.52292508	0
19.19000000	2.56529373	136.54427693	-7.51946425	1.13187171	0	-0.62019945	65.74655039	599.75884095	-36.09355639	0.79649041	0	-0.42623767	0	-2.23635282	0	0	3.43356048	0.00000000
19.20000000	-3.94959169	174.06639544	-9.34533644	1.13590823	0	-0.61822120	69.12002265	578.93640796	-33.22806593	0.79013091	0	-0.42690384	0	-0.27201998	0	0	3.34359496	0
19.21000000	-10.59683887	215.61653436	-9.73274681	1.12259997	0	-0.60860305	71.71566507	553.42140855	-28.98212793	0.78403032	0	-0.42764412	0	1.64849035	0	0	3.25619993	-0.00000000
19.22000000	-17.42514365	259.92853351	-7.77301442	1.10990222	0	-0.60161417	73.24004501	522.52420838	-23.36907552	0.77819748	0	-0.42844467	0	3.04827252	0	0	3.16468469	0.00000000
19.23000000	-24.38228811	304.40352154	-2.98785405	1.10237538	0	-0.59904194	73.41182961	485.48669885	-16.77581076	0.77230497	0	-0.42929799	0	3.67708618	0	0	3.09663079	0
19.24000000	-31.38540098	346.79103777	4.44299090	1.09864488	0	-0.59943580	71.88737022	442.24094796	-9.83687926	0.76622388	0	-0.42999036	0	3.54284952	0	0	2.99470939	0.00000000
19.25000000	-38.12269866	385.51446223	13.37185702	1.09637475	0	-0.60108447	68.31584458	393.23690221	-3.29673361	0.76002406	0	-0.43028179	0	2.89253993	0	0	2.77877971	-0.00000000
19.26000000	-43.84666199	419.48263516	21.76696846	1.09405966	0	-0.60281991	62.41494221	339.25655340	1.84541573	0.75434562	0	-0.43034038	0	2.18647009	0	0	2.45488214	0
19.27000000	-47.91678063	448.88797878	28.03076753	1.09129579	0	-0.60416281	54.06802036	281.83210566	4.76586511	0.75061631	0	-0.43081720	0	1.80733232	0	0	2.04542329	0.00000000
19.28000000	-50.77787704	475.22542700	32.63175665	1.08765656	0	-0.60509111	43.44508156	223.81981160	5.25353377	0.75065017	0	-0.43265099	0	1.70766047	0	0	1.57449704	0
